<?xml version="1.0" encoding="utf-8"?>
<!-- Generator: Adobe Illustrator 23.0.3, SVG Export Plug-In . SVG Version: 6.00 Build 0)  -->
<svg version="1.1" id="Capa_1" xmlns="http://www.w3.org/2000/svg" xmlns:xlink="http://www.w3.org/1999/xlink" x="0px" y="0px"
	 viewBox="0 0 66 65.7" style="enable-background:new 0 0 66 65.7;" xml:space="preserve">
<style type="text/css">
	.st0{fill:#1C156E;}
</style>
<g>
	<path class="st0" d="M12.4,56.3c-2.3,0-4.3,1.9-4.3,4.1c0,2.3,1.9,4.1,4.3,4.1c2.3,0,4.3-1.8,4.3-4.1
		C16.7,58.2,14.8,56.3,12.4,56.3z"/>
	<path class="st0" d="M29.5,56.3c-2.4,0-4.3,1.9-4.3,4.1c0,2.3,1.9,4.1,4.3,4.1c2.3,0,4.3-1.8,4.3-4.1
		C33.8,58.2,31.8,56.3,29.5,56.3z"/>
	<path class="st0" d="M52.7,53.8c-3.1,0-5.6,2.4-5.6,5.4s2.5,5.4,5.6,5.4s5.6-2.4,5.6-5.4C58.2,56.2,55.7,53.8,52.7,53.8z"/>
	<path class="st0" d="M57.4,25.9c0,2,1.7,3.7,3.8,3.7S65,28,65,25.9c0-0.5-0.4-1-1-1c-0.5,0-1,0.5-1,1c0,0.9-0.8,1.7-1.8,1.7
		s-1.8-0.8-1.8-1.7c0-0.9,0.8-1.7,1.8-1.7c0.5,0,1-0.5,1-1V21h1.1c0.5,0,0.9-0.4,1-0.9l0.6-4.7c0-0.3-0.1-0.6-0.2-0.8
		c-0.2-0.2-0.5-0.3-0.8-0.3h-1.7V7.9c1.2-0.5,2.1-1.7,2.1-3.1c0-1.9-1.6-3.4-3.5-3.4s-3.5,1.5-3.5,3.4c0,0.3,0.1,0.6,0.1,0.8
		l-34,25.1H23v-2.6c0-4.5-3.8-8.1-8.4-8.1H4c-0.5,0-1,0.4-1,1v23.4c0,0.6,0.5,1,1,1h4.5v2.7H2c-0.5,0-1,0.5-1,1v9.7c0,0.6,0.5,1,1,1
		h3.1c0.4,0,0.8-0.3,0.9-0.6c0.1-0.2,0.2-0.4,0.2-0.6c0-1.4,1-2.6,2.3-2.9c0.2,0,0.4-0.1,0.7-0.1h23.7c0.2,0,0.5,0,0.7,0.1
		c1.2,0.4,2.2,1.6,2.2,3.1c0,0.6,0.5,1,1,1h3.1c0.5,0,1-0.4,1-1v-1.7H42v1.7c0,0.6,0.4,1,1,1h2.2c0-0.2,0-0.4,0-0.6
		c0-0.2,0-0.5,0-0.7c0.3-3.8,3.6-6.7,7.5-6.7s7.2,3,7.5,6.8c0,0.2,0,0.4,0,0.6c0,0.2,0,0.4,0,0.6h2.2c0.5,0,1-0.4,1-1V46.1
		c0-0.2-0.1-0.4-0.2-0.6l-9.7-12.7c-0.2-0.3-0.5-0.4-0.8-0.4H43c-0.6,0-1,0.4-1,1v17.3h-1.1v-1.6c0-0.5-0.5-1-1-1h-9.6v-2.7h5.5
		c0.6,0,1-0.4,1-1V35c0-2.4-2-4.3-4.4-4.3h-5.5L58.6,7.3c0.5,0.4,1,0.7,1.6,0.8v6.3h-1.6c-0.3,0-0.6,0.1-0.8,0.3s-0.3,0.5-0.2,0.8
		l0.6,4.7c0.1,0.5,0.5,0.9,1,0.9h0.9v1.3C58.6,22.8,57.4,24.2,57.4,25.9z M47.5,34.4h4.6l6.9,9.1H47.5V34.4z M43.9,34.4h1.6v9.1
		h-1.6V34.4z M5,31.3V22h9.6c3.5,0,6.4,2.7,6.4,6.1v4.7c-1,0.1-1.9,0.5-2.7,1l-2.1-2l0.7-0.7c0.4-0.4,0.4-1,0-1.4s-1-0.4-1.4,0
		l-3.3,3.1c-0.4,0.4-0.4,1,0,1.4c0.2,0.2,0.4,0.3,0.7,0.3s0.5-0.1,0.7-0.3l1.1-1l0,0l2,1.9c-1,1-1.6,2.4-1.8,3.8h-1.3l-2.5-6
		c-0.1-0.3-0.4-0.5-0.7-0.6L5,31.3z M28.3,45.5v2.7H10.5v-2.7H28.3z M60.1,19.1l-0.3-2.7h1.4l0,0l0,0h1.5l-0.3,2.7H60.1z"/>
</g>
</svg>
