<?xml version="1.0" encoding="utf-8"?>
<!-- Generator: Adobe Illustrator 23.0.3, SVG Export Plug-In . SVG Version: 6.00 Build 0)  -->
<svg version="1.1" id="Capa_1" xmlns="http://www.w3.org/2000/svg" xmlns:xlink="http://www.w3.org/1999/xlink" x="0px" y="0px"
	 viewBox="0 0 67 67.9" style="enable-background:new 0 0 67 67.9;" xml:space="preserve">
<style type="text/css">
	.st0{fill:#1C156E;}
</style>
<g>
	<path class="st0" d="M2.3,61.4h10.1V41.8H2.3V61.4z M7.4,48.2h2.3v2H7.4V48.2z M7.4,52.2h2.3v2H7.4V52.2z M7.4,56.1h2.3v2H7.4V56.1
		z"/>
	<path class="st0" d="M63.7,47.2c-0.6-0.4-1.4-0.4-2.1-0.1l-14.5,7c-0.8,1.1-2.1,1.8-3.5,1.8H28.9v-2.3h14.8c1.2,0,2.2-1,2.2-2.2
		c0-1.2-1-2.2-2.2-2.2l-8.1,0c-0.1-0.1-5-5-11.6-5.1c-4-0.1-7.6-0.1-9.4-0.1v14.3c4.5,2.6,15.3,8.4,19.4,8.2
		C42.3,66,63.3,51.1,63.5,51c0,0,0.1,0,0.1-0.1C65,50.1,65.1,48.1,63.7,47.2z"/>
	<path class="st0" d="M14.7,31.2h7L21.3,27c0.9-0.2,1.7-0.6,2.6-1.1l2.7,3.2l5-5l-3.2-2.7c0.5-0.8,0.8-1.7,1.1-2.6l4.2,0.4v-7
		l-4.2,0.4c-0.3-0.9-0.6-1.8-1.1-2.6l3.2-2.7l-5-5l-2.7,3.2c-0.8-0.5-1.7-0.8-2.6-1.1l0.4-4.2h-7L15,4.7c-0.9,0.3-1.7,0.6-2.5,1.1
		L9.8,2.5l-5,5l3.2,2.7C7.6,11,7.2,11.8,7,12.7l-4.2-0.4v7L7,19c0.3,0.9,0.6,1.7,1.1,2.6l-3.2,2.7l5,5l2.7-3.2
		c0.8,0.5,1.7,0.8,2.5,1.1L14.7,31.2z M13.6,15.9c0-2.5,2-4.6,4.6-4.6c2.5,0,4.6,2,4.6,4.6c0,2.5-2.1,4.6-4.6,4.6
		C15.6,20.4,13.6,18.4,13.6,15.9z"/>
	<path class="st0" d="M41.6,32.2l-2.8,2.4l4.5,4.5l2.4-2.8c0.7,0.4,1.3,0.6,2,0.9l-0.3,3.7h6.4l-0.3-3.7c0.7-0.2,1.4-0.5,2.1-0.9
		l2.4,2.8l4.5-4.5l-2.8-2.4c0.4-0.7,0.6-1.3,0.9-2.1l3.7,0.3V24l-3.7,0.3c-0.2-0.7-0.5-1.4-0.9-2.1l2.8-2.4L58,15.4l-2.4,2.8
		c-0.7-0.4-1.3-0.6-2.1-0.9l0.3-3.7h-6.4l0.3,3.7c-0.7,0.2-1.4,0.5-2,0.9l-2.4-2.8l-4.5,4.5l2.8,2.4c-0.4,0.7-0.6,1.3-0.9,2.1
		L37.1,24v6.4l3.7-0.3C41,30.8,41.3,31.5,41.6,32.2z M50.6,23.2c2.2,0,4,1.8,4,4c0,2.2-1.8,4-4,4c-2.2,0-4-1.8-4-4
		C46.7,25,48.4,23.2,50.6,23.2z"/>
	<rect x="32.4" y="36.4" class="st0" width="2.1" height="5.1"/>
	<rect x="32.4" y="32.4" class="st0" width="2.1" height="2.4"/>
	<rect x="36.7" y="36.4" class="st0" width="2.1" height="5.1"/>
	<rect x="28.2" y="36.4" class="st0" width="2.1" height="5.1"/>
</g>
</svg>
