<?xml version="1.0" encoding="utf-8"?>
<!-- Generator: Adobe Illustrator 23.0.3, SVG Export Plug-In . SVG Version: 6.00 Build 0)  -->
<svg version="1.1" id="Capa_1" xmlns="http://www.w3.org/2000/svg" xmlns:xlink="http://www.w3.org/1999/xlink" x="0px" y="0px"
	 viewBox="0 0 63.7 94.4" style="enable-background:new 0 0 63.7 94.4;" xml:space="preserve">
<style type="text/css">
	.st0{fill:#1C156E;}
</style>
<path class="st0" d="M31.8,16.6c-8.1,0-14.6,6.6-14.6,14.6c0,8.1,6.6,14.6,14.6,14.6c8.1,0,14.6-6.6,14.6-14.6S39.9,16.6,31.8,16.6z
	 M32.9,35l-3.3,3.3L26.3,35l-3.2-3.2l3.3-3.3l3.2,3.2l7.6-7.6l3.3,3.3L32.9,35z M61,27.1c-1.3-1.2-1.8-3.1-1.1-4.7l0.6-1.5
	c1-2.3-0.3-4.9-2.7-5.6l-1.6-0.4c-1.7-0.5-2.9-2-3-3.8V9.4c-0.1-2.5-2.4-4.3-4.8-3.9l-1.6,0.3c-1.8,0.3-3.5-0.5-4.3-2.1l-0.8-1.4
	c-1.2-2.2-4-2.8-6-1.4l-1.3,0.9c-1.4,1-3.4,1-4.8,0l-1.3-1c-2-1.5-4.9-0.8-6.1,1.4l-0.8,1.4C20.5,5.2,18.8,6,17,5.7l-1.6-0.3
	c-2.5-0.4-4.7,1.4-4.9,3.9l-0.1,1.6c-0.1,1.8-1.3,3.3-3,3.8l-1.6,0.5c-2.4,0.7-3.7,3.3-2.7,5.6l0.6,1.5c0.7,1.6,0.2,3.5-1.1,4.7
	l-1.2,1.1c-1.9,1.6-1.9,4.6,0,6.2l1.2,1.1c1.3,1.2,1.8,3.1,1.1,4.7l-0.6,1.5c-1,2.3,0.3,4.9,2.7,5.6l1.6,0.4c1.7,0.5,2.9,2,3,3.8
	l0.1,1.6c0.1,2.5,2.4,4.3,4.8,3.9l1.6-0.3c1.8-0.3,3.5,0.5,4.3,2.1l0.8,1.4c1.2,2.2,4,2.8,6,1.4l1.3-0.9c1.4-1,3.4-1,4.8,0l1.3,1
	c2,1.5,4.9,0.8,6.1-1.4l0.8-1.4c0.9-1.6,2.6-2.4,4.4-2.1l1.6,0.3c2.5,0.4,4.7-1.4,4.9-3.9l0.1-1.6c0.1-1.8,1.3-3.3,3-3.8l1.6-0.4
	c2.4-0.7,3.7-3.3,2.7-5.6L60,40.2c-0.7-1.6-0.2-3.5,1.1-4.7l1.2-1.1c1.9-1.6,1.9-4.6,0-6.2L61,27.1z M31.8,51.5
	c-11.2,0-20.2-9.1-20.2-20.2c0-11.2,9.1-20.2,20.2-20.2C43,11.1,52,20.2,52,31.3S43,51.5,31.8,51.5z M0.4,86.7l9.8-24.5
	c1.3,0.6,2.8,1,4.3,1c0.6,0,1.2-0.1,1.8-0.2h0.2l0.1,0.2c1.7,3.2,5.2,5.2,9,5.2c1,0,2.1-0.2,3-0.5L18.3,93.8
	c-0.3,0.8-1.4,0.9-1.8,0.1l-4.9-8.6c-0.2-0.3-0.5-0.4-0.8-0.3l-9.2,2.9C0.8,88.2,0.1,87.4,0.4,86.7z M45.3,94.1l-10.4-26
	c1,0.3,2,0.5,3,0.5c3.8,0,7.2-2,9-5.3l0.1-0.2h0.2c0.6,0.1,1.2,0.2,1.8,0.2c1.6,0,3-0.4,4.4-1L63.2,87c0.3,0.8-0.4,1.6-1.2,1.3
	l-9.2-2.9c-0.3-0.1-0.6,0-0.8,0.3l-4.9,8.6C46.7,94.9,45.6,94.8,45.3,94.1z"/>
</svg>
