<?xml version="1.0" encoding="utf-8"?>
<!-- Generator: Adobe Illustrator 23.0.3, SVG Export Plug-In . SVG Version: 6.00 Build 0)  -->
<svg version="1.1" id="Capa_1" xmlns="http://www.w3.org/2000/svg" xmlns:xlink="http://www.w3.org/1999/xlink" x="0px" y="0px"
	 viewBox="0 0 847 744.3" style="enable-background:new 0 0 847 744.3;" xml:space="preserve">
<style type="text/css">
	.st0{fill:none;stroke:#000000;stroke-width:8.46;stroke-linecap:round;stroke-linejoin:round;}
	.st1{fill:none;stroke:#000000;stroke-width:8.46;}
	.st2{fill-rule:evenodd;clip-rule:evenodd;fill:#1C156E;}
</style>
<g>
	<polyline class="st0" points="144,713.2 144,300.2 238,235.2 316,272.2 316,713.2 	"/>
	<polyline class="st0" points="316,272.2 316,142.2 480,9.2 558,88.2 558,339.2 639,287.2 707,322.2 707,713.2 	"/>
	<line class="st0" x1="453" y1="31.2" x2="453" y2="713.2"/>
	<line class="st0" x1="238" y1="235.2" x2="238" y2="713.2"/>
	<line class="st0" x1="558" y1="339.2" x2="558" y2="713.2"/>
	<line class="st0" x1="639" y1="287.2" x2="639" y2="713.2"/>
	<polygon class="st0" points="18,713.2 833,713.2 833,736.2 18,736.2 	"/>
	<path class="st1" d="M100,615.2c5,20-3,51-25,51c-21,0-29-31-24-51C16,529.2,135,529.2,100,615.2z"/>
	<line class="st1" x1="75" y1="666.2" x2="76" y2="713.2"/>
	<path class="st1" d="M800,615.2c6,20-2,51-24,51s-30-31-25-51C717,529.2,835,529.2,800,615.2z"/>
	<line class="st1" x1="776" y1="666.2" x2="776" y2="713.2"/>
	<polygon class="st2" points="316,272.2 316,713.2 453,713.2 453,31.2 316,142.2 	"/>
	<path class="st2" d="M100,615.2c35-86-84-86-49,0c-5,20,3,51,24,51C97,666.2,105,635.2,100,615.2z"/>
	<polygon class="st2" points="144,713.2 76,713.2 18,713.2 18,736.2 833,736.2 833,713.2 776,713.2 707,713.2 639,713.2 558,713.2 
		453,713.2 316,713.2 238,713.2 	"/>
	<path class="st2" d="M800,615.2c35-86-83-86-49,0c-5,20,3,51,25,51S806,635.2,800,615.2z"/>
	<polygon class="st2" points="238,713.2 238,235.2 144,300.2 144,713.2 	"/>
	<polygon class="st2" points="558,339.2 558,713.2 639,713.2 639,287.2 	"/>
</g>
</svg>
